<?xml version="1.0" encoding="UTF-8"?>
<svg width="960px" height="960px" viewBox="0 0 960 960" version="1.1" xmlns="http://www.w3.org/2000/svg" xmlns:xlink="http://www.w3.org/1999/xlink">
    <title>devices / Philips hue / lights</title>
    <g id="devices-/-Philips-hue-/-lights" stroke="none" stroke-width="1" fill="none" fill-rule="evenodd">
        <path d="M599.899669,703.524792 C598.818048,706.316818 597.73741,709.002492 597.34445,711.796666 L596.952473,712.2253 C595.184156,717.705148 593.807815,725.116532 592.334217,733.389481 C590.860619,742.841977 589.780963,753.369817 588.699342,764.758147 C588.011663,777.327098 587.324966,790.646964 586.931024,803.21699 C586.538065,817.719627 586.538065,831.469201 586.931024,844.360433 L586.931024,848.657511 L555.003067,885.935733 L555.397009,885.935733 L544.590623,896.141292 L516.984238,922.460892 L516.296558,922.890599 C511.286325,927.61631 506.277074,932.34417 480.047029,933.524792 L479.653087,933.524792 C453.816002,932.34417 448.806751,927.61631 443.795535,922.890599 L443.107856,922.460892 L415.502453,896.141292 L404.696067,885.935733 L405.090009,885.935733 L373.554029,848.657511 L373.162052,848.657511 L373.162052,844.360433 C373.554029,831.469201 373.554029,817.719627 373.162052,803.21699 C372.86635,790.646964 372.080431,777.327098 371.392752,764.758147 C370.312113,753.369817 369.232457,742.841977 367.758859,733.389481 C366.382518,725.116532 364.90892,717.705148 363.141585,712.2253 L362.747643,712.2253 L362.747643,711.796666 C362.452924,709.002492 361.373267,706.316818 359.899669,703.524792" id="Path" stroke="#000000" stroke-width="40" stroke-linejoin="round"></path>
        <path d="M479.899282,297.524792 C597.666056,297.524792 668.22499,297.524792 672.197879,288.260686 L672.351429,288.260686 L673.655723,285.745954 C678.436956,274.64751 684.782812,263.549067 691.736692,251.584507 C707.645015,223.404899 725.37829,192.363762 726.681702,156.901379 C726.793776,150.403741 726.915557,144.493197 726.899669,139.053561 C726.953503,123.267171 725.718925,111.534984 719.575154,101.149502 C711.316099,87.5372075 695.147446,77.3920208 663.069588,65.0797813 C633.513835,53.9813379 603.088847,45.7444251 573.533094,40.3690429 C561.902113,38.2785676 550.384088,36.5789011 539.121097,35.2392365 C518.968966,32.8318892 499.671068,31.6180932 481.823071,31.5371148 C481.186809,31.5344742 480.541722,31.524792 479.909872,31.524792 L479.899282,31.524792 L479.888692,31.524792 C479.257725,31.524792 478.612638,31.5344742 477.976375,31.5371148 C460.127496,31.6180932 440.829598,32.8318892 420.678349,35.2392365 C409.415359,36.5789011 397.896451,38.2785676 386.26547,40.3690429 C356.709717,45.7444251 326.284729,53.9813379 296.728976,65.0797813 C264.652,77.3920208 248.483348,87.5372075 240.224292,101.149502 C234.080522,111.534984 232.845944,123.267171 232.899669,139.053561 C232.883007,144.493197 233.005671,150.403741 233.116862,156.901379 C234.420274,192.363762 252.154431,223.404899 268.061872,251.584507 C275.016634,263.549067 281.362491,274.64751 286.143724,285.745954 L287.448018,288.260686 L287.601568,288.260686 C291.574457,297.524792 362.132508,297.524792 479.899282,297.524792" id="Stroke-3" stroke="#000000" stroke-width="20" stroke-linejoin="round"></path>
        <path d="M371.210497,715.524792 C359.076507,706.878815 348.149738,682.807759 348.149738,682.807759 C348.149738,622.694023 341.707693,562.844717 333.324208,508.107723 C317.175853,402.247611 293.349108,320.186192 291.759776,314.721306 C291.142928,312.870297 290.436068,311.548147 289.81922,310.578571 C288.141641,306.700265 286.90618,303.791536 287.52391,289.953037 L288.858208,290.057046 C288.245772,289.604871 287.818656,289.127134 287.601568,288.62031 L287.448018,288.62031 L286.143724,286.102056 C281.363373,274.988066 275.016634,263.874077 268.061872,251.891875 C252.154431,223.672795 234.420274,192.589058 233.116862,157.077001 C233.005671,150.570262 232.883007,144.650557 232.899669,139.204182 C232.845944,123.39568 234.080522,111.647059 240.224292,101.24703 C248.483348,87.6147858 264.652,77.4562696 296.728976,65.1267837 C326.284729,54.0127941 356.709717,45.7643433 386.266353,40.3814315 C397.896451,38.288028 409.415359,36.5850993 420.678349,35.2444396 C440.829598,32.8337201 460.127496,31.6182239 477.976375,31.5362506 C478.612638,31.5336063 479.258607,31.524792 479.888692,31.524792 L479.895752,31.524792 L479.909872,31.524792 C480.541722,31.524792 481.186809,31.5336063 481.823071,31.5362506 C499.671068,31.6182239 518.969849,32.8337201 539.121097,35.2444396 C550.384088,36.5850993 561.902113,38.288028 573.533094,40.3814315 C603.088847,45.7643433 633.513835,54.0127941 663.069588,65.1267837 C695.147446,77.4562696 711.316099,87.6147858 719.575154,101.24703 C725.718925,111.647059 726.953503,123.39568 726.899669,139.204182 C726.915557,144.650557 726.793776,150.570262 726.681702,157.077001 C725.37829,192.589058 707.645015,223.672795 691.736692,251.891875 C684.782812,263.874077 678.436956,274.988066 673.655723,286.102056 L672.351429,288.62031 L672.197879,288.62031 C671.985203,289.115676 671.571324,289.583717 670.98095,290.027959 L672.281714,289.953037 C672.899444,303.791536 671.575736,306.700265 669.987286,310.578571 C669.369556,311.460004 668.663578,312.782154 668.045848,314.721306 C666.72214,320.186192 642.630654,402.247611 626.482298,508.107723 C618.45092,561.522568 612.362745,621.107444 612.008874,679.6346 L612.008874,682.719616 L611.986812,683.007844 C611.986812,683.007844 606.155437,706.878815 594.021447,715.524792" id="Stroke-5" stroke="#000000" stroke-width="40" stroke-linejoin="round"></path>
        <path d="M348.899669,681.524792 C351.45019,683.171851 354.00159,684.178387 356.903906,685.184923 C362.197555,687.124792 370.157816,688.726099 379.857709,690.044661 C405.468451,693.539171 443.224946,695.058125 476.074768,695.524792 L479.592727,695.524792 L483.461603,695.524792 C516.178622,695.158779 580.73405,694.885184 610.899669,682.805838" id="Stroke-7" stroke="#000000" stroke-width="20" stroke-linejoin="round"></path>
        <path d="M372.09701,828.524792 C363.681452,869.858125 399.627716,890.524792 479.935801,890.524792 C560.243887,890.524792 594.469053,869.858125 582.6113,828.524792 C550.167945,835.102121 515.991759,838.390785 480.082742,838.390785 C444.173726,838.390785 408.178482,835.102121 372.09701,828.524792 Z" id="Path-9" fill="#000000"></path>
        <path d="M370.899669,727.524792 C402.9816,732.858125 449.314933,735.524792 509.899669,735.524792" id="Path-10" stroke="#000000" stroke-width="20" stroke-linejoin="round"></path>
        <path d="M370.899669,762.524792 C402.9816,768.524792 449.314933,771.524792 509.899669,771.524792" id="Path-10" stroke="#000000" stroke-width="20" stroke-linejoin="round"></path>
        <path d="M370.899669,799.524792 C402.9816,804.858125 449.314933,807.524792 509.899669,807.524792" id="Path-10" stroke="#000000" stroke-width="20" stroke-linejoin="round"></path>
    </g>
</svg>