<?xml version="1.0" encoding="UTF-8"?>
<svg width="960px" height="960px" viewBox="0 0 960 960" version="1.1" xmlns="http://www.w3.org/2000/svg" xmlns:xlink="http://www.w3.org/1999/xlink">
    <title>devices / fibaro / door-window-sensor</title>
    <g id="devices-/-fibaro-/-door-window-sensor" stroke="none" stroke-width="1" fill="none" fill-rule="evenodd" stroke-linecap="round" stroke-linejoin="round">
        <path d="M355.300304,25.4989143 C367.554981,24.3360269 376.788378,23.6478087 383.000494,23.4342595 C390.135162,23.1889965 400.921943,23.1889965 415.360835,23.4342595 C465.116608,21.7238435 505.451632,60.8312201 505.451632,110.78303 L505.451632,841.306416 C505.451632,891.258226 465.116608,929.269716 415.360835,926.207456 L355.300304,922.51098 C296.614007,918.899084 249.039364,869.497892 249.039364,812.170331 L249.039364,132.952497 C249.039364,75.6249357 296.614007,27.516328 355.300304,25.4989143 Z" id="Rectangle" stroke="#000000" stroke-width="40"></path>
        <path d="M392.821001,31.1011169 C402.666332,29.9525607 410.084384,29.2728238 415.07516,29.0619064 C420.807107,28.8196659 429.473138,28.8196659 441.073253,29.0619064 C481.046728,27.372569 513.451632,65.9979976 513.451632,115.334216 L513.451632,836.854841 C513.451632,886.191059 481.046728,923.734107 441.073253,920.709585 L392.821001,917.058664 C345.6728,913.491279 307.451632,864.698894 307.451632,808.077821 L307.451632,137.230473 C307.451632,80.6093997 345.6728,33.0936687 392.821001,31.1011169 Z" id="Rectangle" stroke="#000000" stroke-width="20"></path>
        <path d="M699.105108,289.821366 C703.167502,289.334646 706.228349,289.046596 708.287649,288.957216 C710.652773,288.854563 714.228563,288.854563 719.015018,288.957216 C735.508927,288.241331 748.879883,304.609506 748.879883,325.516558 L748.879883,631.273056 C748.879883,652.180108 735.508927,668.089606 719.015018,666.807914 L699.105108,665.260775 C679.650753,663.749036 663.879883,643.072442 663.879883,619.07831 L663.879883,334.795465 C663.879883,310.801333 679.650753,290.665743 699.105108,289.821366 Z" id="Rectangle" stroke="#000000" stroke-width="20"></path>
        <path d="M625.411032,336.061236 L625.411032,620.89731 C628.708637,648.447692 646.395393,665.404452 678.471298,671.767589 C726.585155,681.312295 748.639003,644.636527 748.639003,612.016764 C748.639003,579.397001 748.639003,346.836256 748.639003,326.069431 C748.639003,305.302607 721.163193,271.111844 682.590399,278.261916 C661.371352,282.195199 644.683854,292.603682 632.527905,309.487366 C631.637159,310.724544 628.744433,314.929295 626.734558,323.304767 C626.183093,325.60281 625.741917,329.854966 625.411032,336.061236 Z" id="Path-105" stroke="#000000" stroke-width="40"></path>
    </g>
</svg>